<svg width="251" height="350" viewBox="0 0 301 350" fill="none" xmlns="http://www.w3.org/2000/svg">
<path d="M23.1 1.04999C24.2667 1.74999 22.05 4.43332 14.35 10.9667C8.75002 15.8667 3.85002 19.25 3.61669 18.55C3.50002 17.9667 4.08335 16.45 5.13335 15.2833C6.18335 14.1167 6.65002 12.8333 6.18335 12.4833C5.25002 11.4333 8.98335 7.23332 13.4167 4.54999C15.4 3.26665 16.3334 2.33332 15.5167 2.33332C12.95 2.33332 5.48335 9.79999 3.38335 14.5833C1.40002 18.7833 1.16669 22.8667 1.16669 51.5667C1.16669 69.3 1.63335 84.1167 2.10002 84.4667C3.15002 85.05 18.6667 75.7167 18.6667 74.4333C18.6667 73.9667 15.1667 75.95 10.85 78.75C6.53335 81.55 2.80002 83.65 2.56669 83.4167C1.16669 82.0167 3.96669 79.3333 10.9667 75.1333C15.1667 72.6833 18.6667 69.8833 18.6667 68.95C18.6667 67.55 18.4334 67.55 17.2667 69.0667C16.45 70.1167 12.7167 72.8 9.10002 75.1333C3.38335 78.75 2.33335 79.1 2.33335 77.35C2.33335 75.3667 14.9334 66.5 17.6167 66.5C18.2 66.5 18.6667 65.9167 18.6667 65.2167C18.6667 64.05 13.7667 66.6167 6.76669 71.4C3.15002 73.85 2.33335 73.9667 2.33335 71.9833C2.33335 71.2833 6.06669 68.25 10.5 65.45C14.9334 62.5333 18.4334 60.0833 18.2 59.7333C17.85 59.5 14.4667 61.4833 10.6167 64.05C2.91669 69.3 2.33335 69.5333 2.33335 67.3167C2.33335 66.5 5.95002 63.4667 10.5 60.6667C14.9334 57.75 18.6667 54.95 18.6667 54.4833C18.6667 54.0167 16.9167 54.8333 14.9334 56.35C7.46669 61.8333 2.33335 64.4 2.33335 62.7667C2.33335 61.6 7.35002 57.75 18.55 50.5167C18.7834 50.2833 18.7834 49.9333 18.55 49.5833C18.2 49.35 15.4 50.9833 12.1334 53.2C3.96669 59.15 2.33335 59.85 2.33335 57.9833C2.33335 56.4667 15.5167 46.6667 17.6167 46.6667C18.2 46.6667 18.6667 46.0833 18.6667 45.3833C18.6667 43.9833 17.7334 44.45 10.5 49.5833C3.38335 54.6 2.33335 55.1833 2.33335 53.7833C2.33335 53.2 5.95002 50.1667 10.5 47.0167C14.9334 43.9833 18.6667 40.95 18.6667 40.4833C18.6667 39.9 17.2667 40.6 15.5167 41.8833C6.53335 48.7667 2.33335 51.3333 2.45002 49.9333C2.45002 49.1167 6.06669 45.7333 10.5 42.5833C14.9334 39.3167 18.6667 36.2833 18.6667 35.8167C18.6667 35.2333 15.2834 37.45 11.2 40.7167C3.15002 47.1333 2.33335 47.4833 2.33335 45.0333C2.33335 44.1 5.95002 40.8333 10.5 37.6833C14.9334 34.65 18.6667 31.3833 18.6667 30.45C18.6667 29.4 17.9667 29.6333 16.6834 31.15C13.0667 35.2333 2.33335 42.35 2.33335 40.6C2.33335 39.7833 4.08335 37.9167 6.18335 36.4C10.85 33.1333 19.8334 25.0833 17.5 26.3667C16.5667 26.8333 12.95 29.6333 9.56669 32.4333C6.18335 35.35 3.15002 37.3333 2.68335 36.8667C2.21669 36.5167 2.45002 35.7 3.03335 35.2333C3.61669 34.65 7.11669 31.3833 10.85 28C15.75 23.45 17.85 22.05 18.55 23.2167C19.25 24.2667 19.7167 24.0333 20.1834 22.2833C21 18.7833 26.0167 17.15 31.6167 18.6667C34.0667 19.3667 36.4 20.4167 36.75 21C37.1 21.5833 37.45 33.3667 37.3334 47.0167C37.3334 60.7833 37.6834 72.2167 38.0334 72.6833C38.7334 73.3833 51.3334 65.5667 51.3334 64.4C51.3334 63.9333 48.1834 65.8 42.5834 69.65C39.9 71.4 38.5 71.6333 38.5 70C38.5 68.3667 54.1334 58.2167 54.6 59.6167C54.8334 60.2 54.3667 61.6 53.4334 62.65C52.6167 63.7 52.5 64.2833 53.3167 63.8167C54.1334 63.2333 54.6 64.2833 54.6 66.9667C54.6 70.7 54.0167 71.4 47.4834 75.25C43.6334 77.5833 39.7834 79.2167 38.9667 78.8667C38.0334 78.5167 37.3334 79.45 37.1 81.4333C36.8667 83.8833 35.8167 84.9333 32.6667 85.8667C28.8167 87.15 28.8167 87.2667 31.5 87.7333C33.4834 87.9667 36.5167 86.8 40.8334 83.8833C49.1167 78.4 54.8334 75.4833 54.8334 76.7667C54.8334 77.35 48.5334 81.7833 40.8334 86.8C33.1334 91.8167 26.6 96.3667 26.1334 96.95C25.7834 97.5333 31.5 94.15 38.7334 89.4833C56 78.2833 55.1834 78.75 54.6 80.85C54.25 82.95 24.15 102.667 21.4667 102.667C20.5334 102.667 19.95 102.2 20.3 101.617C20.65 101.15 19.4834 100.917 17.7334 101.15C14.7 101.617 14.7 101.617 16.9167 99.75C18.2 98.7 20.3 97.0667 21.5834 96.1333C24.7334 93.8 21.2334 95.4333 17.15 98.2333C15.4 99.5167 14.2334 100.917 14.5834 101.5C14.9334 101.967 18.55 103.017 22.6334 103.833L30.1 105.233L34.4167 114.45L38.7334 123.667H45.5C52.6167 123.667 54.1334 122.85 52.9667 119.7C52.3834 118.067 51.9167 118.183 49.35 120.167C46.3167 122.617 43.1667 123.2 43.1667 121.567C43.1667 120.983 44.9167 119.583 47.1334 118.417L51.1 116.2L48.7667 110.367C44.9167 100.683 44.9167 100.683 50.05 95.0833C54.1334 90.65 56.2334 86.3333 54.25 86.3333C53.3167 86.3333 44.3334 92.4 44.3334 92.9833C44.3334 93.3333 46.2 92.4 48.4167 91C51.8 88.9 52.5 88.7833 52.5 90.3C52.5 91.2333 48.3 94.7333 43.1667 98.1167C38.0334 101.383 33.8334 104.3 33.8334 104.65C33.8334 105.233 35.4667 104.3 40.0167 101.15C41.8834 99.9833 43.6334 99.2833 44.1 99.75C44.9167 100.45 43.05 102.2 37.8 105.933C36.5167 106.75 37.45 106.4 39.9 105.117C45.5 102.083 46.55 103.483 41.7667 107.683L37.9167 111.067L41.65 108.617C43.6334 107.217 45.5 106.167 45.7334 106.167C46.4334 106.167 49.35 115.617 48.7667 115.967C48.5334 116.083 46.4334 117.6 44.1 119.35C41.1834 121.567 39.55 122.15 38.9667 121.217C38.5 120.4 39.0834 119.117 40.3667 118.183C45.9667 114.1 47.1334 113.167 45.5 113.867C44.5667 114.333 42.35 115.733 40.6 116.9C37.9167 118.767 37.3334 118.883 37.3334 117.367C37.3334 116.433 39.2 114.567 41.4167 113.167C43.6334 111.767 45.5 110.367 45.5 110.133C45.5 109.433 43.8667 110.367 39.55 113.283C36.2834 115.617 34.1834 115.033 36.4 112.35C37.45 111.067 37.2167 110.95 35.5834 111.533C33.8334 112.233 33.6 111.883 34.0667 109.9C34.5334 108.5 34.3 107.567 33.7167 108.033C33.1334 108.383 32.6667 107.8 32.6667 106.867C32.6667 105.817 32.2 105 31.5 105C28.7 105 30.8 102.433 36.75 98.4667C40.25 96.1333 43.1667 93.9167 43.1667 93.6833C43.1667 93.1 41.7667 93.9167 33.4834 99.5167C29.75 101.967 26.3667 103.717 26.0167 103.367C25.0834 102.433 24.15 103.133 40.1334 92.8667C47.7167 88.0833 54.4834 84.35 54.95 84.7C55.5334 85.05 56 77.7 56 68.3667C56 59.0333 55.5334 51.3333 54.95 51.3333C54.3667 51.3333 53.3167 52.15 52.5 52.9667C50.4 55.65 39.6667 62.1833 38.85 61.4833C38.5 61.0167 38.7334 59.9667 39.55 59.0333C40.6 57.75 40.6 57.2833 39.55 56.9333C38.2667 56.4667 52.2667 45.5 54.1334 45.5C56.4667 45.5 54.0167 48.3 48.4167 51.9167C44.9167 54.3667 42 56.4667 42 56.8167C42 57.1667 43.4 56.4667 45.15 55.4167C46.7834 54.25 49.9334 52.3833 52.0334 51.1L55.7667 48.8833L55.8834 36.05C56 28.2333 55.65 23.45 54.95 23.8C54.3667 24.15 54.1334 25.4333 54.4834 26.7167C54.8334 28.2333 52.9667 30.45 47.4834 34.8833C39.3167 41.3 38.5 41.65 38.5 39.2C38.5 38.3833 40.4834 36.2833 43.05 34.5333C45.5 32.7833 48.7667 29.9833 50.2834 28.35C51.8 26.7167 50.05 27.7667 46.3167 30.6833C39.0834 36.5167 38.15 37.1 38.7334 34.65C39.2 32.7833 51.9167 22.1667 53.6667 22.1667C57.75 22.1667 51.8 9.21666 45.85 5.13332L42.1167 2.68332L35.9334 8.39999C28.9334 15.05 24.7334 18.0833 23.8 17.2667C23.5667 16.9167 26.95 13.65 31.5 9.79999C35.9334 6.06666 39.6667 2.56666 39.6667 2.09999C39.6667 0.933319 34.1834 0.933319 33.6 2.09999C33.4834 2.56666 28.8167 6.76665 23.3334 11.3167C17.85 15.8667 11.9 21.35 9.91669 23.45C7.23335 26.4833 7.70002 26.25 11.6667 22.5167C24.15 11.0833 37.3334 0.816658 37.3334 2.79999C37.3334 3.26665 9.45002 28.35 5.13335 31.85C2.56669 33.8333 2.45002 33.8333 2.56669 30.3333C2.68335 27.3 4.55002 25.2 14.35 16.5667C20.8834 10.9667 27.65 5.01665 29.6334 3.26665L33.25 0.116653L27.4167 -7.62939e-06C23.8 -7.62939e-06 22.1667 0.349991 23.1 1.04999ZM29.75 2.21665C29.05 2.79999 26.3667 5.13332 23.8 7.23332C21.1167 9.33332 15.1667 14.4667 10.6167 18.55C5.95002 22.6333 2.33335 25.2 2.33335 24.2667C2.33335 22.05 26.4834 1.16666 28.9334 1.16666C30.1 1.16666 30.3334 1.51665 29.75 2.21665ZM46.0834 6.53333C48.3 8.28333 48.3 8.51665 42.8167 13.5333C35.35 20.3 30.5667 20.7667 36.5167 14.1167C38.9667 11.3167 38.9667 11.3167 35.2334 14.35C28.4667 19.7167 28.4667 16.3333 35.1167 10.3833C42.1167 4.19999 42.7 3.96666 46.0834 6.53333ZM45.5 16.3333C40.7167 20.5333 37.3334 22.1667 37.3334 20.3C37.3334 19.95 39.7834 17.3833 42.9334 14.5833C46.55 11.2 48.7667 9.91666 49.5834 10.6167C50.4 11.4333 49 13.4167 45.5 16.3333ZM53.55 18.55C53.4334 21 39.3167 32.0833 38.6167 30.2167C38.15 28.8167 40.6 26.25 49 19.3667C51.2167 17.6167 52.2667 16.45 51.3334 17.0333C50.4 17.5 47.3667 19.7167 44.5667 21.9333C37.1 28 36.8667 25.2 44.3334 18.6667C50.05 13.5333 50.8667 13.1833 52.2667 14.8167C52.9667 15.8667 53.6667 17.6167 53.55 18.55ZM54.8334 32.6667C54.8334 33.8333 41.0667 44.3333 39.4334 44.3333C37.2167 44.3333 39.0834 42.2333 45.85 37.1C53.3167 31.3833 54.8334 30.6833 54.8334 32.6667ZM54.8334 37.3333C54.8334 37.9167 51.8 40.4833 48.1834 42.9333C39.0834 49 38.5 49.35 38.5 48.0667C38.5 46.9 52.3834 36.2833 54.0167 36.1667C54.4834 36.1667 54.8334 36.6333 54.8334 37.3333ZM54.6 42.2333C54.0167 43.75 40.95 53.55 39.4334 53.6667C36.5167 53.7833 39.55 50.05 45.85 45.85C53.55 40.7167 55.3 39.9 54.6 42.2333ZM54.8334 55.3C54.8334 56.7 41.3 66.5 39.3167 66.5C36.8667 66.5 39.3167 63.7 45.85 59.15C53.7834 53.3167 54.8334 52.85 54.8334 55.3ZM53.6667 74.7833C42.9334 81.3167 38.5 83.65 38.5 82.8333C38.5 81.4333 54.0167 72.2167 54.8334 73.15C55.1834 73.5 54.6 74.2 53.6667 74.7833ZM51.9167 121.333C51.5667 121.917 50.6334 122.5 50.05 122.5C49.35 122.5 49.2334 121.917 49.5834 121.333C49.9334 120.633 50.8667 120.167 51.45 120.167C52.15 120.167 52.2667 120.633 51.9167 121.333Z" fill="#03A655"/>
<path d="M41.3 9.56667L39.0834 12.25L41.7667 10.0333C44.2167 7.93333 44.9167 7 43.9834 7C43.75 7 42.5834 8.16667 41.3 9.56667Z" fill="#03A655"/>
<path d="M108.267 0.816628L105 1.28329V40.3666C105 71.2833 105.35 79.3333 106.517 78.6333C107.217 78.1666 110.95 75.7166 114.683 73.15C118.417 70.7 121.8 68.8333 122.033 69.1833C122.383 69.5333 120.283 71.4 117.367 73.5C110.483 78.1666 110.483 78.9833 117.25 74.9C121.917 72.1 124.717 68.3666 123.317 66.9666C122.967 66.6166 119.35 68.7166 115.15 71.75C107.333 77.2333 106.167 77.7 106.167 75.95C106.167 75.3666 109.783 72.5666 114.333 69.7666C122.617 64.6333 124.6 61.8333 123.083 57.2833C122.383 54.95 122.033 55.0666 115.733 59.2666C106.633 65.3333 106.167 65.6833 106.167 64.2833C106.167 63.5833 109.317 60.9 113.167 58.3333C117.017 55.7666 120.167 53.3166 120.167 52.9666C120.167 52.7333 117.367 54.25 114.1 56.5833C107.8 60.7833 106.167 61.3666 106.167 59.6166C106.167 58.45 120.4 48.3 121.683 48.7666C122.15 48.8833 122.5 46.55 122.5 43.6333V38.2666L114.8 43.75C110.6 46.7833 106.867 48.8833 106.517 48.5333C106.05 48.1833 106.05 47.7166 106.283 47.4833C115.85 40.0166 121.217 36.4 121.8 36.9833C122.15 37.45 122.5 35.7 122.5 33.1333C122.5 29.9833 122.15 29.05 121.45 30.2166C120.867 31.15 120.633 32.55 120.867 33.25C121.217 34.0666 118.65 36.75 115.267 39.3166C106.4 45.9666 106.283 46.0833 106.4 42.1166C106.517 39.2 107.8 37.6833 114.45 33.0166L122.383 27.4166L122.5 19.6V11.7833L118.767 15.2833C111.417 22.1666 106.167 25.9 106.283 24.2666C106.283 22.8666 117.25 12.8333 121.333 10.5C122.267 9.91663 122.733 9.21663 122.383 8.74996C122.033 8.39996 118.3 11.0833 114.217 14.7C109.433 19.0166 106.633 20.7666 106.4 19.8333C106.05 18.9 107.1 17.2666 108.617 15.9833C114.217 11.55 122.5 3.38329 122.5 2.44997C122.5 0.34996 115.967 -0.350037 108.267 0.816628ZM113.167 2.09996C113.167 2.6833 111.65 4.19997 109.783 5.4833L106.517 8.04996V5.13329C106.517 3.14996 106.983 2.44997 108.033 2.79996C108.85 3.14996 109.9 2.91663 110.25 2.3333C111.067 0.933296 113.167 0.816628 113.167 2.09996ZM120.517 2.3333C122.033 2.3333 116.55 8.16663 110.717 12.95L106.517 16.3333L106.4 13.0666C106.4 10.7333 107.683 8.74996 111.183 5.59996C113.867 3.14996 116.783 1.51663 117.6 1.74996C118.533 2.09996 119.817 2.3333 120.517 2.3333ZM121.217 17.9666C120.983 18.0833 118.183 20.3 114.917 22.8666C107.8 28.5833 106.167 29.6333 106.167 28.2333C106.167 26.4833 120.75 15.05 121.217 16.45C121.333 17.0333 121.333 17.7333 121.217 17.9666ZM117.25 25.3166C109.433 32.2 105.817 34.4166 106.283 32.3166C106.867 30.2166 120.283 19.4833 121.217 20.5333C121.567 20.8833 119.817 23.1 117.25 25.3166ZM121.333 24.9666C121.333 26.25 112.933 33.4833 107.45 36.75C103.483 39.0833 107.333 34.5333 113.75 29.2833C121.8 22.6333 121.333 22.8666 121.333 24.9666ZM120.75 43.05C119.35 45.5 106.167 53.7833 106.167 52.2666C106.283 51.45 109.55 48.5333 113.517 45.85C120.4 41.1833 122.5 40.3666 120.75 43.05ZM121.333 45.5C121.333 46.0833 118.533 48.65 115.267 51.1C107.217 56.9333 106.167 57.5166 106.167 56.1166C106.167 55.5333 109.433 52.6166 113.517 49.8166C121.917 43.75 121.333 43.9833 121.333 45.5ZM122.5 58.2166C122.5 58.8 120.633 60.4333 118.417 61.8333C116.2 63.2333 114.333 64.6333 114.333 64.9833C114.333 65.3333 115.733 64.75 117.367 63.7C119 62.5333 120.867 61.8333 121.683 62.1833C122.383 62.4166 119.35 65.1 114.917 68.0166C110.367 71.05 106.517 72.9166 106.283 72.2166C106.167 71.6333 106.867 70.2333 108.033 69.3C110.017 67.9 110.017 67.7833 108.267 68.3666C103.833 69.8833 106.517 66.5 113.517 61.95C120.983 57.05 122.5 56.35 122.5 58.2166Z" fill="#03A655"/>
<path d="M112 7.58334C109.2 10.5 107.1 12.8333 107.45 12.8333C107.8 12.8333 110.367 10.5 113.167 7.58334C115.967 4.66668 118.067 2.33334 117.717 2.33334C117.367 2.33334 114.8 4.66668 112 7.58334Z" fill="#03A655"/>
<path d="M17.3833 3.73334C15.9833 6.41668 15.9833 6.41668 18.55 4.20001C21.2333 1.75001 21.5833 1.16668 19.8333 1.16668C19.25 1.16668 18.0833 2.33334 17.3833 3.73334Z" fill="#03A655"/>
<path d="M68.25 2.56667C67.9 3.38334 67.7833 17.7333 67.9 34.3L68.25 64.4L76.7667 57.8667C81.3167 54.25 85.1667 52.0333 85.1667 52.85C85.1667 53.55 82.4833 56 79.3333 58.2167C76.0667 60.4333 72.8 63 71.9833 64.05C71.2833 64.9833 73.15 64.05 76.1833 61.8333C79.3333 59.6167 82.1333 57.4 82.3667 56.9333C83.1833 55.65 85.1667 55.7667 85.1667 57.1667C85.1667 58.45 71.8667 67.6667 70.1167 67.6667C69.4167 67.6667 68.8333 68.6 68.8333 69.65C68.8333 70.9333 69.1833 71.2833 69.7667 70.4667C70.2333 69.7667 73.9667 66.9667 77.9333 64.2833C83.65 60.4333 85.2833 59.7333 84.9333 61.3667C84.8167 62.5333 81.0833 65.5667 76.65 68.1333C72.3333 70.8167 68.8333 73.3833 68.8333 73.9667C68.8333 74.55 69.7667 74.2 70.9333 73.2667C75.4833 69.4167 85.1667 64.2833 85.1667 65.6833C85.1667 67.3167 71.5167 76.65 69.8833 76.0667C68.1333 75.6 68.7167 85.1667 70.5833 89.25C72.8 93.8 79.45 100.8 80.3833 99.5167C81.55 97.8833 94.3833 88.6667 96.4833 87.85C98.35 87.15 98.2333 87.5 96.25 89.8333L93.9167 92.6333L96.3667 90.8833C100.683 87.9667 111.533 77.8167 108.85 79.2167C107.333 79.9167 104.883 81.9 103.25 83.5333C100.683 86.1 99.4 86.45 94.9667 86.1C92.1667 85.8667 89.8333 86.1 89.8333 86.45C89.8333 86.8 86.9167 89.1333 83.3 91.4667C76.5333 96.0167 73.3833 96.3667 78.2833 92.05L81.0833 89.6L78.1667 91.4667C75.0167 93.5667 73.5 93.8 73.5 92.2833C73.5 91 86.3333 82.4833 87.15 83.3C87.5 83.65 87.15 84.9333 86.2167 85.9833C84.8167 87.9667 84.8167 87.9667 86.8 86.2167C88.4333 84.7 88.6667 83.7667 87.6167 82.0167C86.9167 80.5 86.3333 65.1 86.1 40.7167L85.75 1.75001L77.2333 1.40001C71.05 1.16667 68.6 1.51668 68.25 2.56667ZM75.0167 3.96667C74.6667 4.66667 75.0167 4.55001 75.95 3.73335C76.7667 3.03334 77.9333 2.33334 78.5167 2.33334C78.9833 2.33334 79.1 3.03334 78.6333 3.73335C77.9333 4.78334 78.2833 4.78334 79.6833 3.73335C80.9667 2.68334 82.1333 2.45001 83.5333 3.26668C85.1667 4.20001 84.9333 4.90001 81.55 8.86668C78.8667 12.0167 78.5167 12.6 80.7333 10.7333L83.7667 8.05001L84.4667 11.0833C85.1667 13.7667 84.2333 15.4 78.05 22.2833C71.75 29.5167 68.8333 31.7333 68.8333 29.6333C68.8333 29.2833 72.3333 24.9667 76.5333 19.95L84.2333 11.0833L77.1167 18.55C69.3 26.95 66.5 27.7667 73.15 19.7167L77.4667 14.5833L73.2667 18.4333L69.1833 22.2833L69.3 16.1C69.3 12.7167 69.8833 9.21667 70.4667 8.28334C71.1667 7.23335 71.05 6.88334 70.35 7.35001C69.65 7.81667 69.1833 7.00001 69.1833 5.48335C69.1833 3.26668 69.7667 2.80001 72.45 2.80001C74.4333 2.80001 75.4833 3.26668 75.0167 3.96667ZM85.1667 19.1333C85.1667 20.8833 69.8833 35.2333 68.95 34.4167C68.3667 33.8333 83.0667 17.7333 84.35 17.6167C84.8167 17.5 85.1667 18.2 85.1667 19.1333ZM78.2833 31.85C74.4333 35.5833 71.1667 39.0833 71.1667 39.4333C71.1667 39.9 74.0833 37.3333 77.5833 33.8333C81.0833 30.45 84.35 28 84.8167 28.4667C85.6333 29.2833 71.6333 43.1667 70 43.1667C69.65 43.1667 69.3 41.65 69.4167 39.7833C69.4167 37.1 71.05 34.8833 77 29.4C86.6833 20.5333 87.85 22.6333 78.2833 31.85ZM85.1667 33.7167C85.1667 34.3 81.7833 37.9167 77.5833 41.8833C73.3833 45.7333 70.35 49 70.9333 49C71.4 49 74.4333 46.3167 77.5833 43.1667C80.7333 39.9 83.7667 37.3333 84.2333 37.3333C86.6833 37.3333 84.4667 40.25 77.7 45.7333C73.5 49.1167 70.35 52.15 70.7 52.3833C70.9333 52.6167 74.0833 50.2833 77.5833 47.25C84 41.7667 87.0333 41.0667 84.1167 45.7333C83.1833 47.25 83.0667 47.8333 84 47.25C84.9333 46.6667 85.2833 47.1333 84.9333 48.5333C84.4667 50.8667 70.2333 62.5333 69.1833 61.3667C68.7167 61.0167 69.65 59.2667 71.2833 57.4C72.8 55.65 73.2667 54.95 72.3333 55.65C69.65 58.1 69.0667 57.4 69.0667 51.5667C69.0667 46.3167 69.4167 45.7333 76.3 39.4333C83.3 32.9 85.1667 31.6167 85.1667 33.7167ZM85.1667 69.8833C85.1667 70.4667 84 71.75 82.6 72.8L79.9167 74.7833L82.6 73.5C84.1167 72.6833 85.1667 72.6833 85.1667 73.3833C85.1667 74.3167 72.3333 82.8333 70.9333 82.8333C70.5833 82.8333 70.35 81.7833 70.4667 80.3833C70.5833 78.8667 72.9167 76.4167 77 73.5C83.7667 68.8333 85.1667 68.25 85.1667 69.8833ZM85.1667 77C85.1667 78.75 72.6833 86.6833 70.9333 86.1C70.1167 85.75 72.8 83.3 77 80.7333C85.5167 75.25 85.1667 75.3667 85.1667 77ZM85.75 80.3833C86.1 81.0833 83.3 83.65 79.45 86.2167C75.6 88.9 72.2167 90.5333 71.75 89.95C71.4 89.25 74.2 86.6833 77.8167 84.1167C85.75 78.6333 84.8167 79.1 85.75 80.3833ZM93.3333 87.9667C93.3333 88.9 80.2667 98 79.1 98C76.7667 98 78.9833 95.55 84.5833 91.7C89.8333 88.0833 93.3333 86.5667 93.3333 87.9667Z" fill="#03A655"/>
<path d="M76.8834 10.15L74.0834 13.4167L77.35 10.6167C80.2667 7.93332 81.0834 6.99999 80.15 6.99999C79.9167 6.99999 78.5167 8.39999 76.8834 10.15Z" fill="#03A655"/>
<path d="M71.6334 16.5667L69.4167 19.25L72.1 17.0333C74.55 14.9333 75.25 14 74.3167 14C74.0834 14 72.9167 15.1667 71.6334 16.5667Z" fill="#03A655"/>
<path d="M76.8834 52.15L74.0834 55.4167L77.35 52.6167C80.2667 49.9333 81.0834 49 80.15 49C79.9167 49 78.5167 50.4 76.8834 52.15Z" fill="#03A655"/>
<path d="M75.4834 76.8833C70.7 79.9167 70.1167 81.0833 74.3167 78.8667C76.3 77.8167 78.4 76.5333 78.75 75.8333C79.6834 74.3167 79.45 74.4333 75.4834 76.8833Z" fill="#03A655"/>
<path d="M139.533 2.21669C139.067 2.80002 139.183 4.08336 139.533 5.13336C140.117 6.76669 140.583 6.65003 143.15 4.66669C146.883 1.75002 148.983 1.63336 146.883 4.31669C145.367 6.30002 145.367 6.30002 147.7 4.31669C152.717 0.116692 153.067 2.56669 148.05 7.23336C142.567 12.4834 144.317 11.3167 152.017 4.90002L156.45 1.16669H148.283C143.85 1.16669 139.883 1.63336 139.533 2.21669ZM142.917 3.50002C142.567 4.08336 141.633 4.66669 141.05 4.66669C140.35 4.66669 140.233 4.08336 140.583 3.50002C140.933 2.80002 141.867 2.33336 142.45 2.33336C143.15 2.33336 143.267 2.80002 142.917 3.50002Z" fill="#03A655"/>
<path d="M171.033 4.78333C170.683 6.76666 170.683 10.5 171.033 12.95L171.85 17.5H187.95C197.983 17.5 204.167 17.9667 204.167 18.6667C204.167 20.0667 200.9 27.0667 184.567 61.25C173.133 85.1667 172.2 87.5 171.733 95.3167L171.267 103.833H182.35C191.683 103.833 193.9 103.483 196.233 101.5C204.167 94.85 214.9 87.3833 216.067 87.7333C216.767 87.9667 213.5 91.2333 208.717 94.9667C199.617 102.083 198.45 103.483 201.133 103.483C202.067 103.483 202.767 103.017 202.65 102.55C202.533 101.967 206.267 98.4667 210.933 94.5C218.75 88.2 221.667 86.45 221.667 88.0833C221.667 88.7833 214.2 95.6667 208.133 100.45C205.8 102.317 204.4 103.833 205.1 103.833C205.8 103.833 209.417 101.033 213.033 97.65C220.967 90.3 223.883 88.2 224.817 89.1333C225.167 89.4833 222.133 92.9833 218.05 96.7167L210.583 103.717L218.283 103.833C225.983 103.833 226.1 103.833 226.567 100.45C227.033 97.0667 227.033 97.0667 224.35 98.9333C222.95 100.1 221.667 101.267 221.667 101.733C221.667 102.317 220.733 102.667 219.683 102.667C218.167 102.667 218.983 101.267 222.6 98C228.083 92.75 227.85 93.3333 226.333 89.3667L225.283 86.45L209.767 86.5667H194.25L194.483 83.8833C194.6 82.3667 197.517 75.0167 201.017 67.6667C204.517 60.3167 209.3 49.8167 211.75 44.3333C214.2 38.85 218.517 29.75 221.317 24.0333C225.283 15.75 226.333 12.3667 226.333 7.46666V1.16666H199.033H171.85L171.033 4.78333ZM177.683 6.53333C175.233 8.63333 172.783 10.3833 172.083 10.3833C171.5 10.3833 172.783 8.86666 175 6.99999C177.217 5.01666 178.383 3.49999 177.683 3.49999C176.983 3.49999 175.817 4.31666 175 5.24999C174.183 6.18333 173.017 6.99999 172.433 6.99999C171.617 6.99999 171.733 6.41666 172.55 5.48333C173.25 4.55 173.6 3.61666 173.25 3.26666C173.017 3.03333 174.767 2.68333 177.45 2.68333L182.117 2.56666L177.683 6.53333ZM180.25 8.86666L173.25 15.4L181.067 8.74999C191.333 0.116661 194.017 0.933327 184.1 9.68333C176.05 16.6833 174.183 17.5 173.017 14.4667C172.55 13.0667 174.067 10.9667 178.033 7.46666C186.433 -7.62939e-06 188.417 1.28333 180.25 8.86666ZM189.933 9.33333C180.367 18.3167 176.983 18.4333 186.083 9.33333C189.933 5.59999 194.017 2.45 195.183 2.33333C196.583 2.33333 194.717 4.66666 189.933 9.33333ZM206.733 4.55C205.45 5.59999 201.483 8.74999 197.867 11.4333C194.367 14.2333 190.75 16.3333 190.05 16.1C189.233 15.8667 191.8 13.0667 195.767 9.91666C202.417 4.78333 203.7 3.49999 202.533 3.49999C202.3 3.49999 198.567 6.41666 194.133 9.91666C189.7 13.4167 185.617 16.3333 184.917 16.3333C184.333 16.2167 187.017 13.1833 191.1 9.33333C197.867 3.03333 198.8 2.56666 203.817 2.68333C208.833 2.68333 208.95 2.8 206.733 4.55ZM208.367 8.28333C204.167 11.55 200.667 14.5833 200.667 14.8167C200.667 15.1667 201.367 14.9333 202.183 14.35C202.883 13.7667 206.733 10.7333 210.7 7.81666C214.55 4.78333 218.75 2.33333 220.033 2.33333C222.95 2.33333 225.633 4.08333 224.817 5.48333C223.3 7.93333 206.617 18.6667 206.033 17.6167C205.567 17.0333 209.417 13.5333 214.317 10.0333C219.333 6.41666 222.95 3.49999 222.367 3.49999C221.55 3.49999 206.383 13.8833 205.333 15.2833C204.983 15.6333 202.3 15.9833 199.267 16.1H193.783L202.183 9.33333C206.967 5.48333 211.75 2.45 213.383 2.45C215.6 2.33333 214.667 3.49999 208.367 8.28333ZM224.117 9.8C222.483 11.6667 205.917 23.3333 204.75 23.3333C202.533 23.3333 205.683 20.4167 214.083 14.7C223.3 8.28333 226.683 6.64999 224.117 9.8ZM225.167 12.7167C225.167 14.2333 201.833 30.8 201.017 29.8667C199.967 28.8167 200.783 28.1167 212.917 19.3667C223.533 11.6667 225.167 10.85 225.167 12.7167ZM221.2 20.4167C220.15 22.05 219.683 23.3333 220.033 23.3333C220.5 23.3333 219.917 24.3833 218.633 25.7833C217.467 27.0667 216.417 28.8167 216.3 29.5167C216.3 30.3333 216.067 31.5 216.067 32.2C215.833 33.4833 193.317 50.1667 191.8 50.1667C191.333 50.1667 191.8 49.2333 192.85 48.0667C194.717 46.0833 194.833 45.6167 194.833 42.7C194.833 41.7667 198.917 38.2667 203.933 34.8833C214.55 27.65 220.033 23.3333 218.283 23.3333C217.7 23.3333 216.767 23.9167 216.417 24.5C215.133 26.4833 198.217 37.5667 197.517 36.8667C196.583 36.05 201.367 31.85 212.333 24.0333C222.133 16.9167 224 16.2167 221.2 20.4167ZM210.467 41.65C208.6 43.1667 203.233 46.9 198.683 49.8167C194.017 52.85 190.4 55.4167 190.633 55.7667C190.983 56 195.417 53.3167 200.667 49.7C205.917 46.0833 210.467 43.1667 210.7 43.1667C211.05 43.1667 210.7 44.1 210.117 45.3833C208.717 47.95 187.833 61.0167 186.783 59.9667C186.433 59.6167 187.017 58.8 188.067 58.2167C189.233 57.6333 189.817 56.35 189.467 55.5333C189 54.4833 192.733 51.2167 199.967 46.0833C206.15 41.8833 211.517 37.8 211.983 36.9833C212.567 36.05 212.917 36.1667 213.267 37.3333C213.617 38.15 212.333 40.1333 210.467 41.65ZM206.383 53.2C205.567 54.25 204.75 55.65 204.633 56.4667C203.933 61.4833 199.383 66.0333 189.7 71.4C184.1 74.55 179.2 77 178.967 76.7667C178.033 75.7167 181.067 73.3833 190.517 68.3667C196.117 65.3333 200.667 62.5333 200.667 62.1833C200.667 61.95 196.233 64.05 190.75 67.0833C178.85 73.5 178.617 71.4 190.517 64.5167C195.067 61.8333 199.967 58.8 201.25 57.6333C203.467 55.8833 203.467 55.8833 200.667 57.4C189.7 63.8167 184.1 66.7333 183.633 66.15C182.817 65.3333 189.233 60.55 198.8 54.95C206.967 50.1667 209.3 49.7 206.383 53.2ZM199.5 68.8333C199.5 69.4167 198.333 70.4667 197.05 71.2833C195.417 72.1 194.95 72.9167 195.767 73.3833C197.983 74.6667 195.767 76.5333 185.5 81.7833C172.783 88.3167 173.367 88.0833 174.65 85.75C175.233 84.7 179.9 81.55 185.033 78.6333C190.05 75.8333 193.783 73.5 193.2 73.5C192.617 73.5 188.767 75.3667 184.683 77.7C180.483 80.0333 176.867 81.6667 176.517 81.3167C175.933 80.6167 177.917 79.2167 189.583 72.5667C198.45 67.4333 199.5 67.0833 199.5 68.8333ZM194.017 80.0333C193.2 82.3667 172.667 92.6333 172.667 90.7667C172.667 89.7167 191.683 78.75 194.483 78.1667C194.6 78.1667 194.483 78.9833 194.017 80.0333ZM192.267 85.4C192.033 86.1 187.483 89.0167 182.233 91.8167C174.883 95.7833 172.667 96.6 172.667 95.2C172.667 94.0333 176.167 91.5833 181.767 88.7833C191.45 83.7667 192.967 83.3 192.267 85.4ZM194.833 87.9667C194.833 88.2 190.167 91.2333 184.333 94.6167C178.617 98 174.067 101.033 174.3 101.267C174.533 101.5 178.15 99.5167 182.35 96.95C199.617 86.45 206.383 84.7 190.75 94.9667C185.967 98.1167 182 100.8 182 101.15C182 101.733 183.167 101.033 193.083 94.5C203.933 87.2667 203.933 87.2667 204.633 88.4333C204.983 89.0167 200.9 92.4 195.65 95.9C186.667 101.85 185.5 102.433 179.55 102.2C170.1 101.967 170.917 99.1667 182.583 92.75C190.983 88.2 194.833 86.6833 194.833 87.9667ZM211.167 88.3167C211.05 90.0667 192.267 102.783 190.4 102.433C189.117 102.083 192.033 99.5167 198.917 94.85C209.533 87.6167 211.167 86.8 211.167 88.3167ZM221.433 97.4167C218.4 100.333 215.25 102.667 214.433 102.667C212.683 102.55 224 92.1667 225.75 92.1667C226.45 92.1667 224.467 94.6167 221.433 97.4167ZM225.167 101.5C225.167 102.083 224.583 102.667 223.883 102.667C223.3 102.667 223.067 102.083 223.417 101.5C223.767 100.8 224.35 100.333 224.7 100.333C224.933 100.333 225.167 100.8 225.167 101.5Z" fill="#03A655"/>
<path d="M204.983 37.3333C199.267 41.8833 194.95 45.5 195.417 45.5C196.35 45.5 215.833 30.45 215.833 29.6333C215.833 28.8167 215.483 29.05 204.983 37.3333Z" fill="#03A655"/>
<path d="M236.367 2.21664C236.017 2.68331 237.183 2.91665 238.933 2.68331C241.85 2.21664 241.85 2.33331 239.75 3.61665C238.467 4.43331 237.3 5.13332 237.067 5.36665C236.717 5.59998 241.15 15.05 242.2 16.2166C242.433 16.45 245.467 14.1166 248.967 11.2C253.05 7.58331 255.617 6.18331 256.083 6.99998C256.55 7.81665 256.433 8.74998 255.967 9.21664C248.267 15.5166 243.95 18.4333 243.25 17.7333C242.2 16.6833 243.483 21.2333 246.05 27.0667L247.917 31.3833L254.1 26.6C260.283 21.7 261.567 21.7 262.967 26.3666C263.55 28.4666 262.967 29.4 259.583 31.5C257.367 32.9 255.5 34.3 255.5 34.65C255.5 34.8833 257.367 34.0667 259.7 32.6666C261.917 31.2666 264.133 30.45 264.6 30.9166C265.067 31.2666 264.6 32.0833 263.55 32.6666C262.5 33.25 260.4 34.8833 258.883 36.1666L256.083 38.7333L259.583 36.5166C265.417 32.7833 266 32.4333 266 33.7166C266 35.1166 254.217 43.4 253.4 42.5833C253.05 42.2333 253.517 41.3 254.333 40.25C255.617 38.7333 255.5 38.6166 253.867 39.2C251.65 40.0166 251.417 38.3833 253.517 36.2833C254.683 35.1166 254.567 35 252.933 35.5833C249.083 37.1 250.833 34.1833 256.083 30.45C259 28.35 261.333 26.3666 261.333 26.1333C261.333 25.7833 258.767 27.3 255.617 29.6333C252.583 31.9666 249.55 33.3666 249.083 32.9C247.917 31.9666 248.267 32.9 252.7 43.5166C255.267 49.5833 256.2 50.9833 256.783 49.35C257.483 47.4833 281.167 29.2833 288.167 25.2C293.883 21.8167 283.267 30.9166 271.6 39.3167C264.017 44.8 257.833 49.4666 257.833 49.8166C257.833 50.75 284.2 32.0833 285.367 30.2166C285.717 29.6333 286.533 29.1666 287.233 29.1666C287.933 29.1666 287.35 30.5667 285.717 32.2C281.517 36.75 260.05 52.85 258.3 52.85C257.25 52.85 257.133 53.4333 257.95 54.95C258.533 56.1166 259 67.4333 259 80.2666V103.6L261.917 104.067C263.55 104.417 265.183 104.183 265.533 103.6C265.883 103.133 268.8 101.267 272.067 99.6333C276.15 97.5333 277.667 96.1333 277.2 94.9666C276.85 93.9166 276.5 92.8666 276.5 92.6333C276.5 92.4 273.933 93.45 270.667 95.0833C263.317 98.8166 263.083 99.8666 270.2 96.7166C273.233 95.4333 275.917 94.7333 276.267 95.0833C277.083 95.7833 277.083 95.7833 270.2 99.5166C263.2 103.483 260.75 103.483 260.4 99.9833C260.283 97.7666 261.333 96.7166 266 94.5C269.267 92.9833 271.6 91.5833 271.367 91.35C271.133 91 268.8 91.9333 266.117 93.2166C263.55 94.6166 261.217 95.6666 260.867 95.6666C259.933 95.6666 260.517 90.5333 261.683 88.9C262.383 88.0833 262.383 87.5 261.683 87.5C260.983 87.5 260.517 85.9833 260.4 84.1166C260.4 81.7833 261.1 80.3833 262.85 79.45L265.417 78.1666L262.85 78.8666C257.133 80.2666 260.517 76.65 268.333 73.15C276.15 69.5333 276.383 69.3 276.383 65.3333C276.383 63.1166 276.033 61.95 275.683 62.7666C275.333 63.5833 272.067 65.8 268.217 67.6666C260.75 71.5166 260.167 71.6333 260.167 70.1166C260.167 69.0666 273.35 60.6666 275.1 60.6666C276.383 60.6666 286.183 37.2166 285.25 36.4C284.9 36.05 284.667 36.4 284.667 37.1C284.667 37.9166 281.05 41.1833 276.5 44.45C272.067 47.7166 268.333 50.6333 268.333 50.8666C268.333 51.2166 271.25 49.35 274.983 46.7833C278.6 44.1 281.75 42.2333 281.983 42.4666C283.267 43.75 279.883 46.7833 270.9 52.7333C260.4 59.7333 256.667 60.6666 263.667 54.6L267.75 51.1L263.9 53.6666C261.8 55.0666 259.7 55.8833 259.35 55.5333C258.883 55.1833 258.883 54.7166 259.117 54.4833C264.717 50.5166 274.983 42.7 279.767 38.7333C283.033 35.9333 285.833 33.95 285.833 34.5333C285.95 36.2833 288.167 31.85 291.083 23.9166C294.467 14.9333 294.7 14.8167 280.583 25.4333C275.45 29.2833 271.133 32.4333 271.017 32.2C270.9 32.0833 271.017 30.9166 271.367 29.5166C271.833 28 275.917 24.7333 281.867 21.1166C287.233 17.7333 291.667 14.8167 291.667 14.35C291.667 14 290.5 14.4666 289.1 15.4C281.517 20.4166 274.4 24.5 273.35 24.5C272.65 24.5 271.367 26.7166 270.317 29.4C269.267 32.0833 268.1 33.95 267.633 33.6C267.283 33.1333 265.767 29.9833 264.367 26.3666L261.683 19.8333L255.033 24.6166C251.3 27.3 248.033 29.05 247.567 28.5833C246.4 27.4166 255.383 20.4166 260.983 18.0833C261.217 17.9666 259.933 14.35 258.417 9.91665C256.783 5.59998 255.5 1.74998 255.5 1.63332C255.5 0.699982 236.95 1.28331 236.367 2.21664ZM254.917 3.73331C255.267 4.08331 252.7 6.76665 249.2 9.79998C244.767 13.5333 242.55 14.8167 241.967 13.7666C241.383 12.95 243.017 10.7333 246.283 7.93331C249.083 5.48331 251.067 3.49998 250.6 3.49998C250.133 3.49998 247.917 5.13332 245.583 7.11665C243.25 9.21664 241.033 10.3833 240.567 9.91665C240.1 9.56665 241.267 7.81665 243.017 6.29998C244.767 4.78331 245.817 3.49998 245.233 3.49998C244.65 3.49998 243.25 4.54998 242.083 5.83331C240.917 7.11665 239.517 7.81665 238.817 7.34998C236.25 5.71664 243.25 2.44998 248.733 2.79998C251.767 2.91665 254.567 3.38332 254.917 3.73331ZM257.833 11.55C257.833 12.1333 255.15 14.8167 251.883 17.3833C248.5 20.0667 246.283 22.1666 246.867 22.1666C247.333 22.1666 248.85 21.2333 250.133 19.95C251.533 18.7833 253.983 16.9166 255.85 15.75C258.417 14.1166 259 14 259 15.4C259 17.0333 247.683 26.3666 246.75 25.55C246.517 25.3167 246.05 23.6833 245.583 22.05C244.883 19.3666 245.583 18.4333 250.483 14.8167C256.317 10.3833 257.833 9.79998 257.833 11.55ZM289.8 22.05C288.633 23.3333 280.583 29.4 271.95 35.4666C261.333 43.1666 255.85 46.3166 255.033 45.5C254.45 44.9166 254.1 44.2166 254.45 43.9833C256.9 42 266 36.1666 266.817 36.1666C267.283 36.1666 273 32.3167 279.417 27.5333C290.383 19.6 294.933 17.15 289.8 22.05ZM278.717 51.5666C277.2 54.1333 276.967 54.8333 276.617 57.05C276.5 57.75 266.7 64.2833 261.1 67.3166C260.517 67.55 260.167 67.0833 260.167 66.0333C260.167 65.1 263.55 62.4166 267.75 60.0833C271.95 57.75 275.333 55.65 275.333 55.3C275.333 54.95 271.833 56.7 267.633 59.0333C263.317 61.4833 260.05 62.7666 260.283 62.0666C260.75 60.6666 279.067 47.8333 279.767 48.4166C280 48.65 279.533 50.05 278.717 51.5666ZM275.333 66.85C275.333 67.6666 271.95 70 267.75 72.1C262.733 74.55 260.167 75.25 260.167 74.3166C260.167 73.2666 272.067 66.15 275.1 65.45C275.217 65.3333 275.333 66.0333 275.333 66.85Z" fill="#03A655"/>
<path d="M279.883 4.19999C278.367 8.28332 278.833 8.51666 282.333 5.71666C284.083 4.43332 284.433 3.73332 283.267 4.19999C282.1 4.54999 281.167 4.43332 281.167 3.73332C281.167 3.14999 283.033 2.56666 285.25 2.68332L289.333 2.79999L286.183 5.48332C284.317 6.88332 281.75 8.51666 280.35 8.86666C278.833 9.21666 277.667 10.0333 277.667 10.6167C277.667 11.9 280.35 10.6167 287.7 5.71666C291.433 3.14999 293.767 2.33332 295.75 2.79999C299.95 3.84999 298.433 5.83332 287.933 12.25C275.917 19.7167 276.033 19.7167 276.85 15.6333C277.55 12.4833 277.433 12.4833 275.8 16.2167C274.867 18.3167 274.283 20.4167 274.633 20.65C274.983 21 280 18.3167 285.833 14.7C295.4 8.74999 299.017 7.69999 294.583 12.1333C293.65 13.0667 293.3 14.1167 293.883 14.4667C294.817 15.05 299.833 4.66666 299.833 2.21666C299.833 1.63332 295.633 1.16666 290.5 1.16666C281.4 1.16666 281.05 1.28332 279.883 4.19999Z" fill="#03A655"/>
<path d="M152.25 7.58332L147.583 11.6667L151.9 9.09999C154.233 7.58332 156.45 5.71666 156.8 4.89999C157.617 2.91666 157.5 3.03332 152.25 7.58332Z" fill="#03A655"/>
<path d="M287.117 8.63331C279.883 13.7666 276.617 16.45 280 14.5833C284.55 12.0166 296.333 3.49997 295.517 3.49997C294.933 3.49997 291.2 5.83331 287.117 8.63331Z" fill="#03A655"/>
<path d="M10.9667 9.56666L7.58337 13.4167L11.4334 10.0333C14.9334 6.76666 15.75 5.83332 14.8167 5.83332C14.5834 5.83332 12.95 7.58332 10.9667 9.56666Z" fill="#03A655"/>
<path d="M142.333 7.58334C141.517 8.51667 140.467 8.98334 139.883 8.63334C138.717 7.93334 138.367 65.6833 139.533 66.85C140.233 67.55 150.15 61.1333 153.417 57.9833C155.167 56.2333 151.783 58.2167 146.183 62.1833C138.133 67.9 139.067 64.8667 147.117 58.9167C151.083 56 155.05 53.7833 155.983 54.1333C157.15 54.6 157.5 53.3167 157.5 49C157.5 45.7333 157.15 43.1667 156.683 43.1667C156.1 43.1667 153.883 44.8 151.667 46.7833C147.7 50.2833 147.7 50.2833 151.317 47.95C157.15 43.9833 157.383 45.15 151.667 50.4C147.117 54.4833 147 54.7167 150.733 52.15C155.517 48.65 156.333 48.4167 156.217 50.4C156.217 51.6833 144.083 60.4333 140.7 61.7167C140 61.95 141.05 60.3167 142.917 58.2167C144.9 56 145.25 55.3 143.733 56.4667C139.417 60.2 139.183 57.4 143.617 53.55C146.533 50.8667 146.65 50.6333 144.2 52.3833C140.35 55.1833 138.833 54.8333 141.283 51.6833C142.333 50.4 142.45 50.05 141.517 50.6333C140.583 51.1 140 50.8667 140 49.9333C140.117 48.3 150.967 39.0833 154.467 37.8C156.333 37.1 156.45 37.45 155.75 39.7833C155.05 42 155.167 42.35 156.45 41.1833C157.383 40.1333 157.5 38.9667 156.8 37.3333C155.75 35 155.4 35.2333 148.4 40.8333C144.433 43.9833 140.933 46.6667 140.7 46.6667C140.467 46.6667 140.233 44.2167 140.35 41.3C140.467 36.5167 140.817 35.7 145.717 31.7333C155.867 23.45 155.633 23.5667 154.933 26.4833C154.467 28 154.7 29.1667 155.283 29.1667C155.867 29.1667 156.333 27.5333 156.333 25.55V21.9333L148.867 27.8833C144.783 31.15 141.167 33.8333 140.817 33.8333C139.65 33.8333 140.35 22.75 141.633 21.1167C142.567 19.8333 142.567 19.6 141.517 20.3C138.95 21.7 139.883 19.6 143.267 15.8667L146.417 12.25L143.15 15.05L140 17.9667L140.233 14.4667C140.35 12.6 141.517 9.91668 142.8 8.40001C143.967 7.00001 144.783 5.83334 144.433 5.83334C144.083 5.83334 143.15 6.65001 142.333 7.58334Z" fill="#03A655"/>
<path d="M145.717 17.15L142.917 20.4167L146.183 17.6167C149.1 14.9333 149.917 14 148.983 14C148.75 14 147.35 15.4 145.717 17.15Z" fill="#03A655"/>
<path d="M153.3 19.95C151.083 22.5166 151.083 22.5166 153.767 20.8833C155.167 19.95 156.333 18.9 156.333 18.4333C156.333 17.0333 155.633 17.3833 153.3 19.95Z" fill="#03A655"/>
<path d="M145.133 22.4L141.75 26.25L145.6 22.8667C147.583 20.8833 149.333 19.25 149.333 19.0167C149.333 18.0833 148.4 18.9 145.133 22.4Z" fill="#03A655"/>
<path d="M148.05 24.15C146.533 26.0166 146.65 26.1333 148.517 24.6166C150.383 23.1 150.967 22.1666 150.033 22.1666C149.8 22.1666 148.867 23.1 148.05 24.15Z" fill="#03A655"/>
<path d="M143.383 27.65C141.867 29.5166 141.983 29.6333 143.85 28.1166C144.9 27.3 145.833 26.3666 145.833 26.1333C145.833 25.2 144.9 25.7833 143.383 27.65Z" fill="#03A655"/>
<path d="M150.383 31.15C148.867 33.0166 148.983 33.1333 150.85 31.6166C151.9 30.8 152.833 29.8666 152.833 29.6333C152.833 28.7 151.9 29.2833 150.383 31.15Z" fill="#03A655"/>
<path d="M154.583 31.5C154.233 32.0833 154.467 32.6667 155.05 32.6667C155.75 32.6667 156.333 32.0833 156.333 31.5C156.333 30.8 156.1 30.3333 155.867 30.3333C155.517 30.3333 154.933 30.8 154.583 31.5Z" fill="#03A655"/>
<path d="M113.867 36.1667C108.383 40.3667 107.217 41.5333 110.25 39.9C112.933 38.3833 119.933 32.7833 119 32.7833C118.65 32.7833 116.433 34.3 113.867 36.1667Z" fill="#03A655"/>
<path d="M145.133 35.2333L142.917 37.9167L145.6 35.7C148.05 33.6 148.75 32.6667 147.817 32.6667C147.583 32.6667 146.417 33.8333 145.133 35.2333Z" fill="#03A655"/>
<path d="M150.383 34.65C148.867 36.5166 148.983 36.6333 150.85 35.1166C151.9 34.3 152.833 33.3666 152.833 33.1333C152.833 32.2 151.9 32.7833 150.383 34.65Z" fill="#03A655"/>
<path d="M144.55 39.3167L141.75 42.5833L145.017 39.7833C147.933 37.1 148.75 36.1667 147.817 36.1667C147.583 36.1667 146.183 37.5667 144.55 39.3167Z" fill="#03A655"/>
<path d="M151.55 42.8166C150.033 44.6833 150.15 44.8 152.017 43.2833C153.067 42.4666 154 41.5333 154 41.3C154 40.3666 153.067 40.95 151.55 42.8166Z" fill="#03A655"/>
<path d="M145.717 47.4833L142.917 50.75L146.183 47.95C149.1 45.2667 149.917 44.3333 148.983 44.3333C148.75 44.3333 147.35 45.7333 145.717 47.4833Z" fill="#03A655"/>
<path d="M121.45 52.0333C121.45 53.3167 121.8 53.6667 122.15 52.7333C122.5 51.9167 122.383 50.8667 122.033 50.5167C121.683 50.05 121.333 50.75 121.45 52.0333Z" fill="#03A655"/>
<path d="M155.633 59.6167C155.283 60.3167 155.517 61.4833 156.217 62.1833C157.15 63.1167 157.5 62.7667 157.5 60.9C157.5 58.1 156.917 57.6333 155.633 59.6167Z" fill="#03A655"/>
<path d="M145.017 66.2667C142.333 68.0167 140.117 69.8833 140 70.35C140 70.8167 142.333 69.65 145.25 67.6667C148.167 65.6833 150.5 63.8167 150.5 63.5833C150.5 62.7667 150.267 62.8833 145.017 66.2667Z" fill="#03A655"/>
<path d="M147.933 68.8333C144.783 70.8167 142.333 72.5667 142.333 72.9167C142.333 73.2667 145.017 71.8667 148.167 69.8833C151.433 67.9 154 66.0333 154 65.8C154 65.1 153.767 65.2167 147.933 68.8333Z" fill="#03A655"/>
<path d="M150.5 71.4C142.333 76.8834 140.933 78.9834 148.75 73.9667C152.6 71.5167 155.983 69.3 156.217 69.1833C156.45 68.95 156.45 68.6 156.217 68.3667C155.983 68.0167 153.417 69.4167 150.5 71.4Z" fill="#03A655"/>
<path d="M44.9167 71.8667C38.9667 75.8333 36.8667 77.9333 41.5334 75.25C45.6167 72.9167 51.1 68.95 50.1667 68.8333C49.8167 68.8333 47.4834 70.2333 44.9167 71.8667Z" fill="#03A655"/>
<path d="M270.667 74.6667C267.75 76.5333 265.883 78.1667 266.35 78.1667C267.867 78.1667 276.5 73.0333 276.5 71.9833C276.5 70.9333 276.733 70.8167 270.667 74.6667Z" fill="#03A655"/>
<path d="M148.983 76.5333C145.367 78.75 142.333 80.9666 142.333 81.3166C142.333 81.6666 144.083 80.7333 146.183 79.3333C148.167 77.9333 151.317 76.1833 153.183 75.4833C154.933 74.7833 156.333 73.7333 156.333 73.2666C156.333 71.9833 156.333 71.9833 148.983 76.5333Z" fill="#03A655"/>
<path d="M111.067 81.7833C105.233 86.2167 100.333 90.1833 100.333 90.5333C100.333 90.7667 104.883 87.6167 110.483 83.4167C120.517 75.8333 126.233 73.0333 119.467 79.1C116.55 81.6667 96.1333 97.7667 90.3 102.083C89.4833 102.667 88.4333 102.783 87.9667 102.317C87.5 101.85 88.3167 100.567 89.8333 99.5167C91.4667 98.35 94.2667 96.0167 96.25 94.15C98.1167 92.4 96.4833 93.3333 92.4 96.3667C88.4333 99.4 84.8167 101.5 84.35 101.033C83.8833 100.683 84.5833 99.5167 85.8667 98.7C87.0333 97.7667 89.3667 95.9 91 94.5C92.6333 93.1 91.35 93.6833 88.3167 95.7833C81.2 100.683 81.0833 100.917 84.9333 102.433C91 104.767 95.3167 105.233 96.95 103.6C98.4667 102.083 116.667 87.15 119.933 84.8167C120.75 84.1167 121.333 84.1167 121.333 84.9333C121.333 86.2167 103.017 101.967 100.333 103.017C99.05 103.483 99.2833 103.717 100.917 103.717C102.2 103.717 104.417 102.55 105.933 100.917C110.367 96.25 120.167 88.3167 120.167 89.4833C120.167 91.7 116.083 96.1333 111.067 99.2833C105.35 102.9 105.233 103.833 110.717 101.033C115.733 98.4667 120.983 91.8167 121.8 86.9167C122.267 84.5833 122.5 82.4833 122.267 82.25C122.033 82.0167 116.2 86.5667 109.083 92.2833C102.083 97.8833 95.3167 102.55 94.15 102.667C90.8833 102.667 92.2833 101.383 107.683 89.7167C125.417 76.3 124.133 77.5833 122.85 75.4833C122.033 73.9667 119.933 75.1333 111.067 81.7833Z" fill="#03A655"/>
<path d="M139.65 74.3167C138.483 75.3667 138.6 103.833 139.767 103.833C140.233 103.833 140.583 96.95 140.583 88.6667C140.583 80.2667 140.583 73.5 140.467 73.5C140.467 73.5 140 73.85 139.65 74.3167Z" fill="#03A655"/>
<path d="M148.167 81.2C143.967 84 141.05 86.3333 141.517 86.3333C142.1 86.3333 150.967 80.9667 156.217 77.35C156.45 77.1167 156.45 76.7667 156.217 76.5333C155.983 76.3 152.367 78.4 148.167 81.2Z" fill="#03A655"/>
<path d="M270.667 79.3333C268.45 80.6167 267.167 81.55 267.75 81.55C268.45 81.55 270.783 80.6167 273 79.3333C275.217 78.05 276.617 77.1167 275.917 77.1167C275.333 77.1167 272.883 78.05 270.667 79.3333Z" fill="#03A655"/>
<path d="M18.3167 81.4333C18.6667 83.0666 17.85 84 15.2834 85.1667C13.3 85.9833 11.3167 87.15 10.9667 87.7333C10.6167 88.3166 12.3667 87.7333 14.9334 86.45C20.5334 83.5333 22.4 85.05 17.85 88.6667C15.9834 90.0666 15.4 90.7666 16.3334 90.3C17.2667 89.8333 19.0167 88.6667 20.0667 87.7333C22.75 85.5167 25.2 87.0333 23.1 89.6C21.7 91.4666 21.8167 91.4666 23.9167 89.8333C25.2 88.9 26.4834 88.0833 26.7167 87.85C26.95 87.7333 25.7834 86.9167 24.0334 86.2167C22.2834 85.4 20.65 83.5333 20.3 82.0167C19.8334 80.5 19.1334 79.3333 18.6667 79.3333C18.0834 79.3333 17.9667 80.2667 18.3167 81.4333Z" fill="#03A655"/>
<path d="M155.75 80.5C155.4 81.0834 151.9 83.3 148.05 85.2834C144.317 87.3834 141.283 89.25 141.517 89.4834C141.75 89.6 144.783 88.3167 148.283 86.3334C155.75 82.25 156.333 82.1334 156.333 85.05C156.333 86.45 153.883 88.6667 149.333 91.4667C145.483 93.9167 142.333 96.1334 142.333 96.4834C142.333 96.8334 143.733 96.1334 145.483 95.0834C154 89.4834 156.333 88.4334 156.333 90.1834C156.333 91.1167 152.95 93.8 148.75 96.25C144.55 98.7 141.4 100.917 141.633 101.267C141.983 101.5 143.617 100.683 145.483 99.4C150.617 95.7834 156.333 93.2167 156.333 94.3834C156.333 94.9667 153.067 97.5334 149.1 99.9834L141.75 104.417L146.3 104.767C149.8 105.117 151.433 104.533 153.3 102.55L155.75 99.9834L152.483 101.967C150.617 103.017 148.283 103.833 147.233 103.6C145.833 103.25 146.767 102.317 150.15 100.567C156.333 97.3 156.683 97.3 156.1 100.917C155.75 102.55 155.983 103.833 156.567 103.833C157.15 103.833 157.5 98.35 157.383 91.5834C157.267 84.8167 157.033 79.3334 156.8 79.3334C156.683 79.3334 156.217 79.8 155.75 80.5Z" fill="#03A655"/>
<path d="M12.0167 82.95C7.93337 85.5166 6.65003 87.2666 10.2667 85.2833C12.8334 83.7666 17.0334 80.6166 16.3334 80.5C15.9834 80.5 14 81.6666 12.0167 82.95Z" fill="#03A655"/>
<path d="M270.433 82.95C267.983 84.2333 266 85.5166 266 85.75C266 86.3333 275.217 82.0166 276.383 80.9666C277.783 79.6833 274.283 80.85 270.433 82.95Z" fill="#03A655"/>
<path d="M271.6 86.45C269.15 87.7333 267.167 89.0167 267.167 89.25C267.167 89.6 269.15 88.9 271.6 87.85C276.85 85.4 276.967 85.2833 276.383 84.7C276.15 84.4667 273.933 85.2833 271.6 86.45Z" fill="#03A655"/>
<path d="M150.967 87.0334C148.867 88.6667 148.867 88.7834 151.433 87.5C152.833 86.8 154 85.9834 154 85.75C154 84.8167 153.417 85.05 150.967 87.0334Z" fill="#03A655"/>
<path d="M2.33337 87.3833C2.33337 89.1333 8.63337 98.2333 10.7334 99.2833C12.25 100.1 12.8334 100.1 12.3667 99.2833C11.9 98.7 13.65 96.7167 16.3334 94.9667C18.9 93.2167 21 91.5833 21 91.35C21 90.7667 19.25 91.7 14.9334 94.7333C11.3167 97.3 8.86671 97.4167 9.68337 95.2C10.15 94.0333 9.80004 93.6833 8.86671 94.0333C6.18337 95.0833 5.48337 92.1667 7.70004 90.3C9.80004 88.6667 9.80004 88.6667 7.35004 89.8333C4.55004 91.1167 3.73337 90.0667 5.83337 87.9667C6.53337 87.2667 6.18337 86.8 4.66671 86.8C3.38337 86.8 2.33337 87.0333 2.33337 87.3833Z" fill="#03A655"/>
<path d="M145.133 90.5334C143.033 92.1667 143.033 92.2834 145.6 91C147 90.3 148.167 89.4834 148.167 89.25C148.167 88.3167 147.583 88.55 145.133 90.5334Z" fill="#03A655"/>
<path d="M274.167 89.8333C272.65 90.7667 272.767 91 274.517 91C275.567 91 276.5 90.4167 276.5 89.8333C276.5 88.4333 276.383 88.4333 274.167 89.8333Z" fill="#03A655"/>
<path d="M275.333 100.333C273.817 101.383 273.817 101.5 275.333 101.617C276.267 101.733 275.217 102.2 273 102.667L268.917 103.483L272.767 103.717C275.217 103.833 276.85 103.25 277.317 102.083C278.133 99.6333 277.433 99.05 275.333 100.333Z" fill="#03A655"/>
<path d="M250.25 169.867C243.833 170.8 213.5 175 182.817 179.083C152.25 183.167 126.117 187.133 124.95 187.833C119.817 190.517 117.717 194.95 117.95 202.417L118.3 209.417L114.8 209.067C112.933 208.833 93.6833 206.033 71.9833 202.883C50.4 199.733 30.8 197.167 28.5833 197.167C26.1333 197.167 23.45 198.217 21.5833 199.85C18.55 202.417 18.2 203.817 10.5 257.833C3.26667 308 2.68333 313.483 4.08333 316.983C5.01667 319.083 6.88334 321.3 8.4 322C10.9667 323.05 114.333 338.333 119 338.333C120.167 338.333 122.733 337.05 124.6 335.417C127.75 332.733 128.333 331.333 129.617 321.883C130.317 316.167 131.367 311.85 131.833 312.317C132.3 312.783 133.35 318.733 134.167 325.5C134.983 332.267 136.383 339.5 137.317 341.6C139.417 346.15 144.083 348.833 149.917 348.833C158.083 348.833 286.533 331.217 290.15 329.583C295.517 327.25 298.083 322.583 297.85 316.167C297.267 303.917 279.767 177.8 278.133 174.767C276.033 170.8 270.9 168 265.767 168.117C263.667 168.233 256.667 169.05 250.25 169.867ZM268.8 182.233C270.9 191.917 286.767 318.033 286.067 318.733C285.017 319.783 157.383 337.167 150.85 337.167C148.75 337.167 147 336.817 147 336.233C147 335.767 143.033 305.783 138.25 269.5C133.35 233.217 129.617 202.3 129.733 200.667L130.083 197.75L196 188.883C232.283 183.983 263.317 179.9 265.067 179.783C267.517 179.667 268.45 180.25 268.8 182.233ZM119.467 219.333C119.7 219.683 121.683 232.4 123.667 247.683L127.4 275.45L123.667 301.35C121.683 315.583 119.583 327.717 119 328.3C117.833 329.467 15.2833 315.35 12.7167 313.717C11.7833 313.133 13.5333 298.2 18.7833 261.8C22.75 233.567 26.4833 209.533 26.95 208.133C27.7667 205.683 28 205.8 73.2667 212.217C98.35 215.833 119.117 218.983 119.467 219.333Z" fill="#03A655"/>
<path d="M190.867 211.167C171.617 218.867 163.8 245 180.6 245C185.967 245 187.717 243.367 191.683 234.5C194.717 227.5 197.983 225.167 204.633 225.167C206.85 225.167 209.883 226.217 211.633 227.617C214.083 229.483 214.667 231 214.667 235.083C214.667 239.633 213.967 240.917 207.667 247.8C199.267 257.133 197.167 260.983 197.167 267.167C197.167 271.833 200.083 276.383 203.35 276.617C209.767 277.2 215.833 273.233 215.833 268.333C215.833 267.05 219.567 262.033 224.117 257.017C237.533 242.317 239.633 234.617 233.683 222.717C231.233 218.05 229.017 215.6 224.7 212.917C219.683 209.883 217.933 209.417 207.783 209.183C198.8 208.833 195.417 209.3 190.867 211.167Z" fill="#03A655"/>
<path d="M205.917 284.55C201.6 286.417 198.917 290.5 198.917 295.4C198.917 299.25 199.617 300.65 202.767 303.45C208.483 308.583 216.65 307.417 220.033 300.883C222.717 295.633 222.017 291.783 217.7 287.467C213.733 283.5 210.583 282.683 205.917 284.55Z" fill="#03A655"/>
<path d="M64.9834 230.417C57.75 232.983 51.3334 240.217 51.3334 245.933C51.3334 249.083 55.0667 252 59.15 252C61.95 252 63.5834 250.833 66.9667 246.75C70.5834 242.433 71.9834 241.5 75.1334 241.5C80.15 241.5 85.1667 245.467 85.1667 249.317C85.1667 252.7 79.9167 258.067 72.45 262.5C64.6334 267.05 61.7167 275.1 66.2667 279.183C69.8834 282.45 74.2 281.633 77.5834 277.083C79.3334 274.867 84.1167 271.25 88.2 268.917C97.65 263.667 101.5 258.3 101.5 250.483C101.5 243.717 99.2834 239.05 94.15 235.2C85.9834 229.017 74.2 227.033 64.9834 230.417Z" fill="#03A655"/>
<path d="M62.0667 289.683C58.6834 293.3 58.8 298.083 62.4167 301.583C65.9167 305.083 69.8834 305.317 73.9667 302.05C76.0667 300.3 77 298.55 77 295.867C77 288.05 67.3167 284.083 62.0667 289.683Z" fill="#03A655"/>
</svg>
